<svg width="18" height="21" viewBox="0 0 18 21" fill="none" xmlns="http://www.w3.org/2000/svg">
<path d="M1 19V17C1 15.9391 1.42143 14.9217 2.17157 14.1716C2.92172 13.4214 3.93913 13 5 13H5.5M3 5C3 6.06087 3.42143 7.07828 4.17157 7.82843C4.92172 8.57857 5.93913 9 7 9C8.06087 9 9.07828 8.57857 9.82843 7.82843C10.5786 7.07828 11 6.06087 11 5C11 3.93913 10.5786 2.92172 9.82843 2.17157C9.07828 1.42143 8.06087 1 7 1C5.93913 1 4.92172 1.42143 4.17157 2.17157C3.42143 2.92172 3 3.93913 3 5ZM13 20L16.35 16.716C16.5554 16.5166 16.7188 16.2782 16.8306 16.0146C16.9423 15.7511 17.0001 15.4678 17.0006 15.1815C17.0011 14.8953 16.9442 14.6118 16.8333 14.3479C16.7224 14.084 16.5598 13.845 16.355 13.645C15.9371 13.2363 15.3762 13.007 14.7917 13.0059C14.2072 13.0048 13.6454 13.2319 13.226 13.639L13.002 13.859L12.779 13.639C12.3612 13.2306 11.8005 13.0015 11.2162 13.0004C10.632 12.9992 10.0704 13.2262 9.651 13.633C9.4455 13.8323 9.28201 14.0707 9.17018 14.3342C9.05835 14.5977 9.00044 14.881 8.99988 15.1672C8.99932 15.4535 9.05612 15.7369 9.16692 16.0009C9.27772 16.2648 9.44028 16.5039 9.645 16.704L13 20Z" stroke="white" stroke-width="1.5" stroke-linecap="round" stroke-linejoin="round"/>
</svg>
