<svg width="67" height="12" viewBox="0 0 67 12" fill="none" xmlns="http://www.w3.org/2000/svg">
<path opacity="0.35" d="M42.8333 2.99967C42.8333 1.80306 43.8033 0.833008 44.9999 0.833008H61.6666C62.8632 0.833008 63.8333 1.80306 63.8333 2.99967V8.99968C63.8333 10.1963 62.8632 11.1663 61.6666 11.1663H44.9999C43.8033 11.1663 42.8333 10.1963 42.8333 8.99967V2.99967Z" stroke="#0E0E0E"/>
<path opacity="0.4" d="M65.3333 3.99951V7.99951C66.138 7.66074 66.6613 6.87264 66.6613 5.99951C66.6613 5.12638 66.138 4.33829 65.3333 3.99951Z" fill="#0E0E0E"/>
<path d="M44.3333 3.43301C44.3333 2.8255 44.8257 2.33301 45.4333 2.33301H61.2333C61.8408 2.33301 62.3333 2.82549 62.3333 3.43301V8.56634C62.3333 9.17385 61.8408 9.66634 61.2333 9.66634H45.4333C44.8257 9.66634 44.3333 9.17385 44.3333 8.56634V3.43301Z" fill="#0E0E0E"/>
<path fill-rule="evenodd" clip-rule="evenodd" d="M29.6637 2.60789C31.8796 2.60799 34.0108 3.45943 35.6167 4.98623C35.7376 5.1041 35.9309 5.10261 36.05 4.98289L37.206 3.81623C37.2663 3.7555 37.3 3.67325 37.2995 3.58767C37.299 3.50209 37.2644 3.42024 37.2034 3.36023C32.9883 -0.67932 26.3385 -0.67932 22.1234 3.36023C22.0623 3.4202 22.0277 3.50202 22.0271 3.5876C22.0265 3.67318 22.0601 3.75546 22.1204 3.81623L23.2767 4.98289C23.3957 5.1028 23.5892 5.10428 23.71 4.98623C25.3162 3.45933 27.4476 2.60789 29.6637 2.60789ZM29.6637 6.40356C30.8812 6.40349 32.0552 6.85602 32.9577 7.67323C33.0798 7.78921 33.272 7.78669 33.391 7.66756L34.5457 6.50089C34.6065 6.4397 34.6403 6.35668 34.6394 6.27042C34.6385 6.18415 34.6031 6.10184 34.541 6.04189C31.7928 3.48551 27.5369 3.48551 24.7887 6.04189C24.7266 6.10184 24.6912 6.18419 24.6904 6.27049C24.6896 6.35678 24.7234 6.43979 24.7844 6.50089L25.9387 7.66756C26.0577 7.78669 26.25 7.78921 26.372 7.67323C27.2739 6.85656 28.447 6.40406 29.6637 6.40356ZM31.9767 8.95738C31.9785 9.04389 31.9445 9.12729 31.8827 9.18789L29.8854 11.2036C29.8268 11.2628 29.747 11.2961 29.6637 11.2961C29.5804 11.2961 29.5006 11.2628 29.442 11.2036L27.4444 9.18789C27.3827 9.12724 27.3487 9.04381 27.3505 8.95731C27.3524 8.8708 27.3898 8.78888 27.454 8.73089C28.7296 7.65201 30.5978 7.65201 31.8734 8.73089C31.9375 8.78893 31.9749 8.87087 31.9767 8.95738Z" fill="#0E0E0E"/>
<path fill-rule="evenodd" clip-rule="evenodd" d="M16 0.666504H15C14.4477 0.666504 14 1.11422 14 1.6665V10.3332C14 10.8855 14.4477 11.3332 15 11.3332H16C16.5523 11.3332 17 10.8855 17 10.3332V1.6665C17 1.11422 16.5523 0.666504 16 0.666504ZM10.3333 2.99984H11.3333C11.8856 2.99984 12.3333 3.44755 12.3333 3.99984V10.3332C12.3333 10.8855 11.8856 11.3332 11.3333 11.3332H10.3333C9.78105 11.3332 9.33333 10.8855 9.33333 10.3332V3.99984C9.33333 3.44755 9.78105 2.99984 10.3333 2.99984ZM6.66667 5.33317H5.66667C5.11438 5.33317 4.66667 5.78089 4.66667 6.33317V10.3332C4.66667 10.8855 5.11438 11.3332 5.66667 11.3332H6.66667C7.21895 11.3332 7.66667 10.8855 7.66667 10.3332V6.33317C7.66667 5.78089 7.21895 5.33317 6.66667 5.33317ZM2 7.33317H1C0.447715 7.33317 0 7.78089 0 8.33317V10.3332C0 10.8855 0.447715 11.3332 1 11.3332H2C2.55228 11.3332 3 10.8855 3 10.3332V8.33317C3 7.78089 2.55228 7.33317 2 7.33317Z" fill="#0E0E0E"/>
</svg>
