<svg width="18" height="22" viewBox="0 0 18 22" fill="none" xmlns="http://www.w3.org/2000/svg">
<path d="M2.45457 1C2.06904 1 1.69823 1.14033 1.4255 1.39066C1.15273 1.64066 1 1.97967 1 2.33332V20.0887C1 20.592 1.44365 21 1.99273 21H1.99639C2.29094 21 2.57091 20.8927 2.77818 20.702C3.7418 19.8193 6.58545 17.2127 7.76001 16.138C8.08728 15.8363 8.53451 15.6667 9.00002 15.6667C9.46549 15.6667 9.91276 15.8363 10.24 16.138C11.4182 17.216 14.2764 19.8354 15.2291 20.71C15.4327 20.8957 15.7054 21 15.9927 21C16.5491 21 17 20.587 17 20.0773V2.33332C17 1.97967 16.8473 1.64066 16.5745 1.39066C16.3018 1.14033 15.931 1 15.5454 1H2.45457Z" stroke="#596066" stroke-width="1.5" stroke-linecap="round" stroke-linejoin="round"/>
</svg>
