<svg width="20" height="20" viewBox="0 0 20 20" fill="none" xmlns="http://www.w3.org/2000/svg">
<path d="M1 5C1 3.93913 1.42143 2.92172 2.17157 2.17157C2.92172 1.42143 3.93913 1 5 1H15C16.0609 1 17.0783 1.42143 17.8284 2.17157C18.5786 2.92172 19 3.93913 19 5V15C19 16.0609 18.5786 17.0783 17.8284 17.8284C17.0783 18.5786 16.0609 19 15 19H5C3.93913 19 2.92172 18.5786 2.17157 17.8284C1.42143 17.0783 1 16.0609 1 15V5Z" stroke="white" stroke-width="1.5" stroke-linecap="round" stroke-linejoin="round"/>
<path d="M10 4.99998C11.956 4.99998 13.724 5.80199 15 7.09499L12.044 9.99899C11.4896 9.48547 10.7617 9.20012 10.006 9.19999C9.25044 9.19985 8.52262 9.48483 7.96802 9.99799L5.01202 7.09499C5.66357 6.42993 6.4416 5.90196 7.30029 5.54216C8.15899 5.18237 9.081 4.99802 10.012 4.99998H10Z" stroke="white" stroke-width="1.5" stroke-linecap="round" stroke-linejoin="round"/>
</svg>
